<?xml version="1.0" encoding="UTF-8"?><svg xmlns="http://www.w3.org/2000/svg" viewBox="0 0 1225.41 955.52"><defs><style>.d{opacity:.5;}.e{fill:#493359;}</style></defs><g id="a"/><g id="b"><g id="c"><g class="d"><g><path class="e" d="M820.36,954.89c-12.53-25.83-17.75-38.7-29.4-64.77l-17.5-39.16c-5.79-13.07-10.84-26.26-16.3-39.37l-16.01-39.02c-2.63-6.73-5.81-12.68-8.93-18.61-3.5-5.96-6.93-12.15-11.35-17.99-8.36-11.87-18.37-23.38-30.37-34.18-5.95-5.42-12.42-10.61-19.31-15.59-6.69-4.75-15-10-21.45-13.21l-3.63-1.8-1.21-1.2c-14.86-14.65-24-28.35-32.6-42.97-8.15-14.48-14.32-29.18-18.78-43.98-4.49-14.87-7-29.58-7.88-44.79-.29-15.79,3.49-30.34,7.45-45.02,8.41-29.18,19.83-57.65,30.54-86.16,10.85-28.49,21.3-56.93,29.82-85.52,8.39-28.58,14.96-57.31,16.86-86.13,1.94-28.76-.86-57.81-13.94-85.58-6.91-14.14-14.34-28.01-24.22-41.4-9.33-13.56-21.86-26.45-37.18-38.28-15.22-11.98-35.69-21.62-55.28-31.89-19.83-10.29-32.59-23.98-37.76-38.25,6.15,14.2,19.63,27.4,39.77,37.2,19.96,9.77,41.5,19.21,57.85,31.19,16.47,11.8,30.13,24.77,40.49,38.35,10.98,13.53,19.47,27.56,27.24,41.44,15.42,28.51,20.12,58.1,20.06,87.42-.04,29.37-4.83,58.61-11.4,87.64-6.72,29.02-15.38,57.85-24.39,86.57-8.9,28.71-18.4,57.35-24.71,85.83-2.95,14.13-5.49,28.59-4.35,41.92,1.73,13.83,5.03,28.11,10.15,41.88,5.09,13.83,11.77,27.48,20.18,40.74,8.41,13,19.03,26.61,30.91,37.39l-4.83-3c12.33,5.71,20.26,10.75,29.17,16.46,8.4,5.64,16.21,11.44,23.39,17.45,14.36,11.97,26.42,24.6,36.56,37.59,5.33,6.47,9.52,13.06,13.94,19.76,4.15,6.87,8.16,13.74,11.07,20.04l18.75,39c6.24,12.87,12.1,25.77,18.68,38.62l19.9,38.51c13.27,25.73,26.18,47.85,40.47,73.55l-70.46-.63Z"/><path class="e" d="M614.8,500.63s-2-.41-5.74-1.18c-3.57-.82-8.83-2.03-15.49-3.57-13.14-3.23-31.71-8.07-53.05-15.36-10.58-3.8-21.97-7.95-33.3-13.37-11.24-5.44-22.87-11.67-32.52-19.97-2.34-2.11-4.43-4.43-6.61-6.66l-5.15-5.33c-3.81-3.76-7.41-8.18-11.82-10.86-7.78-6.26-18.4-12.52-29.8-18-22.95-10.83-50.56-19.02-77.54-21.7l-10.05-.86c-5.26-.45-7.46-.82-11.3-1.23-6.69-.27-14.11-2.92-20.69-4.72-6.43-2.1-11.19-4.91-16.54-7.2-4.49-2.77-8.81-5.44-12.95-8.01-15.19-10.87-25.45-20.72-33.09-27.44-7.59-6.73-11.94-10.57-11.94-10.57,0,0,4.9,3.61,13.47,9.9,8.57,6.28,20.38,15.58,36.59,25.27,4.29,2.22,8.77,4.53,13.36,6.91,5.15,1.79,10.16,4.23,15.68,5.63,5.79,1.04,10.26,3.04,17.84,3.05l9.68,.58,11.46,.34c15.42,.52,30.69,3,45.74,6.19,14.92,3.35,29.5,7.72,43.21,13.07,13.59,5.44,26.39,11.5,38.01,19.37,6.54,3.77,10.08,7.46,14.6,11.12,4.13,3.47,8.19,6.9,12.18,10.28,16.24,11.24,39.24,18.75,58.86,24.32,19.97,5.47,37.64,8.99,49.96,11.27,6.17,1.06,11.01,1.88,14.33,2.43,3.22,.47,4.92,.73,4.92,.73l-12.32,25.56Z"/><path class="e" d="M645.2,421.23s-8.77-2.65-24.09-7.29c-15.28-4.68-37.09-11.74-63.39-21.11-6.59-2.48-13.49-5.08-20.61-7.75-7.24-3.07-14.71-6.24-22.39-9.49-7.51-3.8-17.57-8.92-23.53-12.69-6.65-4.1-12.98-7.67-20.27-11.71-28.45-15.42-60.93-31.12-93.23-41.37-8.08-2.64-15.99-4.49-23.51-5.8-3.71-.6-7.28-.9-10.67-1.06l-4.78,.13c-3.79,.2-4.43,0-6.78,0-3.03,.37-10.26-1.33-15.57-2.58-4.69-1.87-9.75-3.43-13.87-5.63-8.68-4.15-16.29-8.73-23.45-13.34-28.27-18.59-50.65-37.25-70.95-52.71-20.03-15.58-37.25-28.26-49.92-36.75-6.24-4.33-11.41-7.5-14.95-9.68-3.51-2.19-5.38-3.36-5.38-3.36,0,0,1.94,1.1,5.58,3.19,3.65,2.05,9.04,5.08,15.56,9.22,13.25,8.12,31.44,20.38,52.58,35.42,21.27,14.84,45.35,33.08,73.15,49.75,6.94,4.09,14.16,8.02,21.41,11.14,3.64,1.79,7.13,2.53,10.64,3.89,2.86,.1,4.56,1.58,8.9,1.05,1.44-.07,4.78-.12,4.71-.19l6.45-.54c4.39-.06,9.01,.14,13.6,.68,9.2,1.16,18.52,3,27.6,5.55,36.5,10.08,70.89,25.28,102.29,40.7,7.61,3.82,15.89,8.12,23.07,12.18,1.82,.98,3.38,1.99,5.36,2.92l4.5,2.11c3.04,1.39,5.69,2.82,8.85,4.17,6.78,2.57,13.34,5.06,19.71,7.47,6.64,2.21,13.07,4.35,19.23,6.41,24.95,7.82,46.06,13.77,60.81,17.66,14.71,3.82,23.11,6.01,23.11,6.01l.22,23.39Z"/><path class="e" d="M630.75,441.69s7.89-.95,21.49-3.07c13.67-2.05,33.11-5.45,55.62-10.52,5.56-1.34,11.35-2.75,17.33-4.21,5.75-1.72,11.64-3.49,17.73-5.32,11.36-4.13,24.08-8.42,31.7-15.36,8.26-6.73,15.36-15.29,21.81-23.95,6.41-8.74,12.29-17.92,18.45-27.06,6.11-9.14,12.39-18.36,20.24-27.09,3.89-4.35,8.27-8.62,13.87-12.42,2.45-2.01,6.38-3.47,9.54-5.14,4.12-1.11,8.21-2.33,11.79-2.78,29.55-4.89,55.81-11.54,78.1-17.78,21.96-6.52,39.71-12.71,50.89-18.11,6.07-2.34,9.44-5.12,12.3-6.65,2.7-1.64,4.17-2.52,4.17-2.52,0,0-1.38,.9-3.96,2.6-2.74,1.61-5.99,4.52-11.87,7.02-10.84,5.71-28.26,12.37-49.91,19.52-21.85,6.79-48.2,14.27-77.63,19.95-14.42,1.8-22.02,10.59-29.21,18.79-6.89,8.5-12.42,17.71-17.83,26.95-5.47,9.26-10.75,18.61-16.69,27.74-6.11,9.15-12.43,17.99-21.85,26.4-9.29,8.79-23.08,13.85-35.26,18.73-6.38,2.12-12.61,4.2-18.62,6.18-6.19,1.7-12.17,3.32-17.92,4.89-23.19,5.91-42.95,9.9-56.98,12.38-14.02,2.59-22.16,3.77-22.17,3.77l-5.12-12.96Z"/><path class="e" d="M669.62,329.15s-8.18-1.11-22.26-3.58c-14.08-2.37-33.94-6.19-57.26-11.9-5.78-1.52-11.8-3.1-18.03-4.74-6.06-1.94-12.33-3.96-18.76-6.03-12.3-4.78-26.2-9.72-35.7-18.43-9.61-8.32-16.14-17.11-22.46-26.21-6.16-9.08-11.66-18.39-17.34-27.6-5.63-9.2-11.37-18.36-18.46-26.8-7.38-8.14-15.19-16.86-29.65-18.54-29.56-5.44-56.09-12.69-78.09-19.3-21.81-6.96-39.39-13.48-50.36-19.1-5.94-2.45-9.26-5.33-12.03-6.92-2.62-1.68-4.02-2.57-4.02-2.57,0,0,1.49,.87,4.23,2.48,2.9,1.5,6.33,4.26,12.45,6.55,11.3,5.3,29.2,11.34,51.31,17.68,22.43,6.05,48.84,12.49,78.5,17.12,3.59,.42,7.71,1.61,11.85,2.68,3.2,1.64,7.16,3.06,9.66,5.06,5.69,3.75,10.17,7.98,14.16,12.3,8.06,8.66,14.55,17.83,20.87,26.91,6.37,9.09,12.46,18.21,19.08,26.9,6.65,8.61,13.96,17.11,22.37,23.77,7.79,6.87,20.61,11.05,32.06,15.09,6.14,1.77,12.06,3.5,17.85,5.17,6.02,1.41,11.84,2.76,17.43,4.06,22.63,4.88,42.15,8.12,55.87,10.05,13.65,2.01,21.56,2.89,21.56,2.89l-4.82,13.01Z"/><path class="e" d="M744.06,417.86s3.22-.59,8.86-1.64c5.75-.98,14.21-2.2,24.2-3.76,10.01-1.5,21.96-2.37,34.53-3.76,12.52-1.57,26.54-1.06,40.11-1.68,13.4-.36,26.76-.72,39.34-1.06,6.39-.03,12.39-.37,17.84-1.29,5.57-.71,10.87-1.4,15.72-2.01,9.86-1.13,17.47-3.43,23.11-4.41,5.45-1.3,8.46-2.26,8.46-2.26,0,0-2.85,1.08-8.15,2.65-5.5,1.24-12.86,3.91-22.71,5.52-4.92,.86-10.23,1.8-15.86,2.79-5.66,1.2-11.7,1.84-17.96,2.15-12.58,.94-26.05,1.92-39.49,2.9-13.14,1.23-26.38,1.29-38.43,3.4-12.03,1.92-23.43,3.28-32.78,5.16-9.36,1.93-17.1,3.42-22.57,4.62-5.48,1.31-8.62,2.05-8.62,2.05l-5.58-9.36Z"/><path class="e" d="M670.96,227.22s2.32-1.23,6.36-3.42c4.17-2.15,10.41-5.14,17.72-8.76,7.36-3.58,16.55-7.13,26.01-11.23,9.34-4.23,20.84-7.18,31.45-10.92,10.6-3.49,21.17-6.97,31.12-10.24,5.12-1.55,9.78-3.26,13.74-5.29,4.15-1.89,8.09-3.71,11.71-5.35,7.4-3.25,12.46-6.89,16.54-9.02,3.78-2.33,5.76-3.81,5.76-3.81,0,0-1.8,1.54-5.34,4.04-3.85,2.29-8.54,6.17-15.71,9.8-3.56,1.85-7.4,3.87-11.47,6-4,2.3-8.55,4.25-13.45,5.99-9.68,3.75-20.05,7.75-30.39,11.74-10,4.11-20.6,7.33-29.32,11.88-8.78,4.39-17.32,8.2-23.97,11.92-6.64,3.77-12.17,6.79-16.02,9.05-3.81,2.34-5.99,3.68-5.99,3.68l-8.77-6.08Z"/><path class="e" d="M536.79,467.67s-13.4,7.64-34.44,18.36c-10.54,5.34-22.99,11.5-36.99,17.65-7.03,3.04-14.37,6.16-22.32,8.99-7.89,2.85-16.18,5.63-26.32,6.94-8.8,1.1-18.15,1.9-25.87,4.03-8.08,1.68-16.11,3.89-23.85,6.06-15.44,4.32-29.56,8.8-41.57,12.74-24.01,7.89-39.65,13.59-39.65,13.59,0,0,15.05-6.21,38.34-14.94,11.63-4.36,25.34-9.34,40.53-14.23,7.58-2.43,15.38-4.96,24.16-7.11,8.57-2.6,17.38-3.62,26.33-5.05,7.59-1.25,15.49-4.05,22.62-7.03,7.26-2.92,14.13-6.19,20.66-9.39,13.06-6.45,24.73-12.9,34.57-18.51,19.74-11.26,32.09-19.18,32.09-19.18l11.72,7.08Z"/><path class="e" d="M602.11,588.98s6.58-5.54,19.16-14.79c12.35-9.31,30.85-22.2,55.32-36.74,6.29-3.55,12.84-7.26,19.63-11.08,7.36-3.56,15.04-7.23,22.87-10.99,16.85-6.8,34.85-14.71,59.07-17.5,23.4-3.06,46.3-3.6,69.78-3.84,23.36-.12,46.89,.36,70.31,.65,23.36,.33,46.69,.55,69.09-.58,21.87-1.49,45.26-3.02,56.27-12.95,26.98-19.31,56.48-35.48,82.28-48.59,26.49-12.8,49.87-22.67,67.92-28.07,8.45-3.21,16.54-4.27,21.48-5.55,5.06-1.12,7.76-1.73,7.76-1.73,0,0-2.69,.68-7.67,1.92-4.81,1.42-12.68,2.62-20.87,6.05-17.51,5.8-39.97,16.14-65.22,29.48-24.76,13.71-52.39,30.19-77.63,49.97-2.73,2.46-7.46,4.95-11.93,7.5-5.27,1.57-10.43,3.82-16.14,4.7-11.23,2.39-22.93,3.65-34.56,4.5-23.37,1.74-47.1,2.07-70.55,2.31-23.49,.27-46.91,.33-69.63,.98-22.56,.72-45.2,1.98-64.28,4.97-19.25,2.42-35.02,9.9-49.78,16.43-7.03,3.69-13.86,7.25-20.5,10.74-6.16,3.78-12.12,7.45-17.82,10.97-22.26,14.43-39.29,27.36-50.49,36.61-11.34,9.16-17.27,14.61-17.27,14.61l-26.61-9.96Z"/><path class="e" d="M690.89,694.57s-14.97-.13-21.24-.37c-6-.31-14.84-.78-26.05-1.38-22.16-1.37-53.55-3.6-90.18-7.89-18.23-2.32-37.85-4.88-57.8-8.73-19.8-3.88-40.49-8.5-58.66-15.5-4.44-1.8-8.53-3.84-12.75-5.77l-9.98-4.65c-7.33-3.25-14.52-7.2-22.46-9.27-14.5-5.21-33.58-10-53.64-13.9-40.36-7.64-87.35-11.95-131.58-10.78l-16.43,.57c-8.6,.3-12.25,.24-18.56,.38-10.84,.69-23.61-.93-34.77-1.79-11-1.19-19.56-3.36-28.88-4.9-8.1-2.15-15.89-4.23-23.38-6.23-27.89-8.79-47.53-17.27-61.95-22.96-14.35-5.71-22.57-8.96-22.57-8.96,0,0,9.03,2.94,24.81,8.06,15.78,5.11,37.74,12.81,66.89,20.27,7.61,1.63,15.54,3.31,23.69,5.07,8.84,1.07,17.69,2.82,27.01,3.44,9.63,.22,17.47,1.6,29.65,.52l15.74-.8,18.53-1.31c24.96-1.69,50.3-1.38,75.51-.31,25.06,1.24,49.88,3.56,73.64,6.99,23.59,3.54,46.09,7.83,67.29,14.11,11.72,2.87,18.58,6.09,27.03,9.14,7.74,2.92,15.37,5.79,22.86,8.64,29.7,9.02,69.06,13.3,102.38,16.12,33.85,2.65,63.37,3.68,83.92,4.21,10.26,.18,18.31,.31,23.81,.4,5.32,.02,8.14,.03,8.14,.03v27.58Z"/><path class="e" d="M687.01,676.52s36.58-4.19,90.95-12.76c27.07-4.28,58.61-9.62,91.65-16.62,16.43-3.53,33.44-7.39,49.86-12.16,16.44-4.55,33.17-10.24,45.03-17.65,13.84-8.78,26.35-17.95,43.23-24.71,15.77-7.62,31.61-13.57,46.94-19.38,30.75-11.63,60.17-21.36,85.52-29.44,50.75-16.19,85.23-25.88,85.23-25.88,0,0-33.63,11.07-82.7,29.24-24.54,9.1-52.94,19.98-82.27,32.67-14.73,6.35-29.87,13-43.53,20.42-14.6,6.36-27.02,16.47-39.75,25.52-14.78,10.38-31.89,16.58-48.77,22.2-16.89,5.73-33.95,10.33-50.47,14.68-33.15,8.53-64.66,15.18-91.73,20.65-54.16,10.85-91.06,16.66-91.06,16.66l-8.13-23.44Z"/></g></g></g></g></svg>